<svg xmlns="http://www.w3.org/2000/svg" viewBox="1.6 1.6 398.08 398.08"><g fill-rule="evenodd"><path d="m187.396 77.506c-.222.162-.869 1.284-1.438 2.494s-1.68 3.55-2.469 5.2c-1.383 2.89-3.635 7.736-5.755 12.381-.557 1.221-1.596 3.479-2.31 5.019-.713 1.54-2.155 4.78-3.204 7.2-2.157 4.978-2.76 6.325-4.786 10.695-.788 1.702-1.434 3.357-1.434 3.677 0 .319-.16.68-.356.801-.195.121-.47.678-.611 1.238s-.81 2.227-1.488 3.704c-.677 1.477-1.577 3.585-1.999 4.685-.893 2.325-1.088 2.783-2.555 6-.602 1.32-1.236 2.76-1.408 3.2-1.143 2.914-2.991 7.448-3.587 8.8-.388.88-1.463 3.49-2.389 5.8s-1.831 4.56-2.011 5c-.611 1.493-4.313 10.78-5.978 15-.912 2.31-1.808 4.56-1.99 5-.3.721-1.221 3.082-2.029 5.2-.807 2.114-2.543 6.528-2.989 7.6-.275.66-1.168 3-1.985 5.2s-1.63 4.36-1.807 4.8-.594 1.52-.926 2.4c-.658 1.742-2.578 6.716-3.088 8-.175.44-1.082 2.87-2.017 5.4-.934 2.53-1.853 4.771-2.043 4.98-.189.209-.344.698-.344 1.086 0 .389-.258 1.298-.574 2.02-.316.723-1.069 2.664-1.673 4.314-.603 1.65-1.245 3.171-1.425 3.38-.181.209-.328.683-.328 1.054s-.269 1.19-.598 1.82c-.328.63-.598 1.425-.6 1.766-.001.341-.145.791-.32 1s-.556 1.1-.846 1.98c-.291.88-.76 2.14-1.044 2.8s-.823 2.1-1.197 3.2-.827 2.36-1.006 2.8c-.18.44-.641 1.7-1.024 2.8s-.847 2.171-1.031 2.38-.334.706-.334 1.105-.164 1.038-.364 1.42-1.112 2.765-2.026 5.295c-.915 2.53-1.808 4.876-1.986 5.213-.177.337-.449 1.19-.604 1.896-.155.705-.448 1.385-.651 1.51-.203.126-.369.55-.369.943 0 .653-.674 2.367-1.626 4.133-.206.382-.374 1.046-.374 1.476s-.18.893-.4 1.029-.406.642-.414 1.124-.259 1.317-.557 1.856c-1.125 2.031-1.203 2.02 14.04 2.02 13.928 0 15.731-.15 15.731-1.306 0-.541 1.854-5.731 2.425-6.789.206-.382.375-.894.375-1.139s.242-1.012.539-1.706c.296-.693.945-2.43 1.443-3.86.497-1.43 1.247-3.59 1.667-4.8s.941-2.513 1.157-2.895c.217-.382.394-.918.394-1.191 0-.416 1.065-3.521 2.372-6.914.609-1.58 1.3-3.615 1.496-4.4.109-.44.349-1.16.533-1.6s.812-2.15 1.395-3.8c.584-1.65 1.235-3.429 1.449-3.954.213-.525.946-2.595 1.628-4.6.683-2.005 1.507-4.052 1.831-4.548l.59-.901 47.819.101 47.818.102.686 1.228c.594 1.062 1.359 3.127 3.625 9.772.821 2.406 1.028 2.957 1.703 4.514.36.832.655 1.856.655 2.276s.159.861.354.981c.195.121.444.716.554 1.324.181.997.645 2.433 1.52 4.705 1.431 3.717 2.372 6.526 2.372 7.085 0 .367.16.767.356.888.195.121.474.716.618 1.323.384 1.611 2.308 6.903 3.571 9.818.36.832.655 1.779.655 2.105s.162.904.359 1.286.669 1.505 1.048 2.495c1.044 2.727 1.551 3.77 1.992 4.094.958.703 30.601.347 30.601-.367 0-.636-1.659-5.8-2.418-7.527-.193-.44-.65-1.748-1.015-2.906-.364-1.158-.821-2.204-1.015-2.324-.194-.119-.352-.646-.352-1.17s-.18-1.064-.4-1.2-.4-.59-.4-1.01-.256-1.354-.568-2.076c-.313-.723-1.054-2.574-1.647-4.114s-1.222-3.16-1.398-3.6c-.175-.44-.631-1.79-1.013-3s-1.117-3.15-1.634-4.311-.94-2.365-.94-2.676-.18-.677-.4-.813-.4-.59-.4-1.01-.258-1.354-.574-2.076c-.316-.723-1.069-2.664-1.673-4.314-.603-1.65-1.245-3.171-1.425-3.38-.181-.209-.328-.698-.328-1.086 0-.389-.255-1.298-.567-2.02-1.288-2.987-1.768-4.195-2.269-5.714-.29-.88-.671-1.771-.846-1.98s-.318-.783-.318-1.276-.166-.999-.369-1.125c-.203-.125-.486-.758-.628-1.406-.143-.648-.581-1.861-.974-2.696-.393-.834-1.211-2.957-1.817-4.717-.607-1.76-1.331-3.74-1.61-4.4-1.36-3.222-2.212-5.425-3.018-7.8-.486-1.43-1.04-2.771-1.233-2.98s-.351-.758-.351-1.22-.156-1.011-.346-1.22c-.191-.209-.844-1.73-1.452-3.38s-1.332-3.54-1.608-4.2c-.444-1.06-2.143-5.373-2.993-7.6-.845-2.214-1.763-4.524-2.225-5.6-.283-.66-.903-2.28-1.377-3.6-.473-1.32-1.104-2.94-1.401-3.6-1.382-3.069-2.198-5.012-2.198-5.235 0-.134-.246-.811-.546-1.505-.3-.693-.864-2.07-1.254-3.06s-1.049-2.573-1.465-3.517c-.415-.944-1.037-2.474-1.382-3.4s-.78-2.043-.967-2.483c-.186-.44-.9-2.15-1.586-3.8s-1.398-3.36-1.583-3.8c-.477-1.136-1.611-3.856-2.003-4.8-.182-.44-.8-1.84-1.373-3.111-.572-1.271-1.041-2.452-1.041-2.625s-.45-1.247-1-2.387-1-2.22-1-2.4-.336-1.036-.747-1.902-1.055-2.295-1.43-3.175-.919-2.14-1.209-2.8-.841-1.92-1.223-2.8c-.383-.88-1.033-2.309-1.444-3.175s-.747-1.715-.747-1.885-.825-2.071-1.833-4.225c-1.009-2.153-2.285-4.995-2.836-6.315-1.16-2.776-2.321-5.272-8.898-19.125-1.338-2.819-2.433-5.3-2.433-5.514s-.291-.833-.646-1.375l-.646-.986-13.054.006c-7.18.003-13.236.138-13.458.3m13.388 34.969c.449.482.816 1.097.816 1.368s.257 1.002.57 1.625c1.141 2.267 3.355 7.176 4.029 8.932.38.99 1.039 2.508 1.464 3.373.426.865 1.325 2.935 1.997 4.6s1.455 3.567 1.74 4.227c.284.66.914 2.19 1.4 3.4.485 1.21 1.037 2.56 1.225 3 .189.44 1.349 3.32 2.579 6.4s2.386 5.96 2.569 6.4c.184.44.822 2.06 1.419 3.6s1.227 3.16 1.399 3.6.588 1.52.925 2.4c.336.88 1.099 2.86 1.694 4.4.596 1.54 1.217 3.16 1.381 3.6s.593 1.481.954 2.314c.36.832.655 1.743.655 2.025 0 .281.45 1.444 1 2.584s1 2.333 1 2.651c0 .319.18.69.4.826s.4.59.4 1.01.26 1.354.577 2.076c.318.723 1.511 3.834 2.652 6.914 1.14 3.08 2.299 6.14 2.575 6.8s.725 1.92.997 2.8c.273.88.654 1.771.847 1.98.194.209.352.783.352 1.276s.18 1.008.4 1.144c.69.426.441 2.15-.374 2.586-.518.277-13.41.414-38.986.414-43.841 0-39.877.394-38.259-3.8.17-.44.679-1.88 1.13-3.2.452-1.32 1.302-3.66 1.888-5.2.587-1.54 1.16-3.16 1.274-3.6.113-.44.459-1.367.767-2.06.308-.694.56-1.461.56-1.706s.208-.847.462-1.339c.938-1.813 1.138-2.294 1.138-2.729 0-.245.242-1.012.539-1.706.296-.693.766-1.98 1.046-2.86.279-.88.775-2.23 1.102-3s.735-1.76.906-2.2.591-1.52.933-2.4 1.007-2.68 1.478-4 1.128-3.03 1.46-3.8c.331-.77.858-1.991 1.169-2.714.312-.722.567-1.656.567-2.076s.18-.874.4-1.01.4-.502.4-.813.433-1.515.963-2.676 1.279-3.011 1.666-4.111.853-2.171 1.037-2.38.334-.609.334-.889.43-1.459.956-2.62 1.713-4.001 2.638-6.311 1.827-4.56 2.003-5c.742-1.847 2.97-6.867 6.443-14.517.429-.944 1.079-2.474 1.444-3.4.366-.926 1.081-2.475 1.59-3.443.509-.967.926-1.966.926-2.22 0-1.405 1.305-1.703 2.384-.545" fill="#fbfafb"/><path d="m180.4 2c0 .239-1.538.4-3.813.4-3.019 0-3.86.125-4.042.6-.178.463-.948.6-3.364.6-1.724 0-3.245.18-3.381.4s-1.407.4-2.824.4c-2.023 0-2.576.129-2.576.6 0 .453-.489.6-2 .6-1.1 0-2 .18-2 .4 0 .222-1.067.4-2.4.4-1.867 0-2.4.133-2.4.6 0 .433-.444.6-1.6.6-.88 0-1.6.18-1.6.4s-.816.4-1.813.4c-1.242 0-1.885.189-2.042.6-.142.37-.75.6-1.588.6-.746 0-1.357.18-1.357.4s-.707.4-1.571.4c-.865 0-1.842.27-2.172.6s-.973.6-1.428.6c-.456 0-.829.18-.829.4s-.636.4-1.413.4c-.886 0-1.498.223-1.642.6-.142.37-.75.6-1.588.6-.746 0-1.357.18-1.357.4s-.615.4-1.367.4c-.751 0-1.427.182-1.501.404s-.583.49-1.132.596-1.058.374-1.132.596-.465.404-.868.404-.797.191-.875.424c-.077.233-.739.441-1.469.462-.731.021-1.422.28-1.535.576-.114.296-.56.538-.992.538-.433 0-1.048.262-1.369.583s-.848.481-1.172.357c-.367-.141-.588.016-.588.417 0 .419-.348.643-1 .643-.55 0-1 .18-1 .4s-.45.4-1 .4c-.622 0-1 .227-1 .6s-.378.6-1 .6c-.55 0-1 .18-1 .4s-.45.4-1 .4c-.622 0-1 .227-1 .6s-.378.6-1 .6c-.55 0-1 .18-1 .4s-.366.4-.813.4c-.446 0-.916.27-1.042.6-.127.33-.584.6-1.016.6-.85 0-1.929.879-1.929 1.571 0 .236-.45.429-1 .429s-1 .18-1 .4-.366.4-.813.4c-.446 0-.916.27-1.042.6-.127.33-.481.6-.788.6-.306 0-.557.18-.557.4s-.36.4-.8.4c-.444 0-.8.267-.8.6 0 .373-.378.6-1 .6-.55 0-1 .18-1 .4s-.27.4-.6.4-.6.27-.6.6c0 .34-.359.6-.829.6-.885 0-1.971.866-1.971 1.571 0 .236-.45.429-1 .429s-1 .18-1 .4-.27.4-.6.4-.6.193-.6.429c0 .705-1.086 1.571-1.971 1.571-.47 0-.829.26-.829.6 0 .33-.204.6-.453.6s-.744.334-1.1.743c-.356.408-1.052.87-1.547 1.027-.495.156-.9.452-.9.657s-.24.373-.532.373c-.293 0-.774.45-1.068 1s-.845 1-1.223 1c-.752 0-4.43 3.414-4.067 3.776.123.123 0 .224-.272.224-.608 0-1.638.988-1.638 1.571 0 .236-.45.429-1 .429s-1 .18-1 .4-.27.4-.6.4-.6.18-.6.4-.72 1.12-1.6 2-1.78 1.6-2 1.6-.4.193-.4.429c0 .553-1.018 1.571-1.571 1.571-.236 0-.429.193-.429.429 0 .553-1.018 1.571-1.571 1.571-.236 0-.429.193-.429.429 0 .553-1.018 1.571-1.571 1.571-.236 0-.429.18-.429.4s-.72 1.12-1.6 2-1.78 1.6-2 1.6-.4.27-.4.6-.18.6-.4.6-.4.45-.4 1-.193 1-.429 1c-.583 0-1.571 1.03-1.571 1.638 0 .272-.101.395-.224.272-.362-.363-3.776 3.315-3.776 4.067 0 .378-.45.929-1 1.223s-1 .775-1 1.068c0 .292-.168.532-.373.532s-.501.405-.657.9c-.157.495-.619 1.191-1.027 1.547-.409.356-.743.851-.743 1.1s-.27.453-.6.453c-.34 0-.6.359-.6.829 0 .885-.866 1.971-1.571 1.971-.236 0-.429.27-.429.6s-.18.6-.4.6-.4.45-.4 1-.193 1-.429 1c-.705 0-1.571 1.086-1.571 1.971 0 .47-.26.829-.6.829-.33 0-.6.27-.6.6s-.18.6-.4.6-.4.45-.4 1c0 .622-.227 1-.6 1-.333 0-.6.356-.6.8 0 .44-.18.8-.4.8s-.4.251-.4.557c0 .307-.27.661-.6.788-.33.126-.6.596-.6 1.042 0 .447-.18.813-.4.813s-.4.45-.4 1-.193 1-.429 1c-.692 0-1.571 1.079-1.571 1.929 0 .432-.27.889-.6 1.016-.33.126-.6.596-.6 1.042 0 .447-.18.813-.4.813s-.4.45-.4 1c0 .622-.227 1-.6 1s-.6.378-.6 1c0 .55-.18 1-.4 1s-.4.45-.4 1c0 .622-.227 1-.6 1s-.6.378-.6 1c0 .55-.18 1-.4 1s-.4.45-.4 1c0 .652-.224 1-.643 1-.401 0-.558.221-.417.588.124.324-.036.851-.357 1.172s-.583.936-.583 1.369c0 .432-.242.878-.538.992-.296.113-.555.804-.576 1.535-.021.73-.229 1.392-.462 1.469-.233.078-.424.472-.424.875s-.182.794-.404.868-.49.583-.596 1.132-.374 1.058-.596 1.132-.404.75-.404 1.501c0 .752-.18 1.367-.4 1.367s-.4.611-.4 1.357c0 .838-.23 1.446-.6 1.588-.377.144-.6.756-.6 1.642 0 .777-.18 1.413-.4 1.413s-.4.373-.4.829c0 .455-.27 1.098-.6 1.428s-.6 1.307-.6 2.172c0 .864-.18 1.571-.4 1.571s-.4.611-.4 1.357c0 .838-.23 1.446-.6 1.588-.411.157-.6.8-.6 2.042 0 .997-.18 1.813-.4 1.813s-.4.72-.4 1.6c0 1.156-.167 1.6-.6 1.6-.467 0-.6.533-.6 2.4 0 1.333-.178 2.4-.4 2.4-.22 0-.4.9-.4 2 0 1.511-.147 2-.6 2-.471 0-.6.553-.6 2.576 0 1.417-.18 2.688-.4 2.824s-.4 1.657-.4 3.381c0 2.416-.137 3.186-.6 3.364-.475.182-.6 1.023-.6 4.042 0 2.275-.161 3.813-.4 3.813-.261 0-.4 7-.4 20.2s.139 20.2.4 20.2c.24 0 .4 1.6.4 4 0 3.289.107 4 .6 4 .48 0 .6.597.6 2.976 0 1.637.18 3.088.4 3.224s.4 1.412.4 2.836c0 1.932.152 2.648.6 2.819.42.162.6.817.6 2.188 0 1.076.18 1.957.4 1.957s.4.887.4 1.971c0 1.219.229 2.201.6 2.572.33.33.6 1.243.6 2.028 0 .786.18 1.429.4 1.429s.4.81.4 1.8c0 1.333.156 1.8.6 1.8.433 0 .6.444.6 1.6 0 .88.18 1.6.4 1.6s.4.726.4 1.613c0 1.064.204 1.69.6 1.842.342.132.6.728.6 1.388 0 .636.18 1.157.4 1.157s.4.63.4 1.4c0 .978.181 1.4.6 1.4.433 0 .6.444.6 1.6 0 .88.18 1.6.4 1.6s.4.63.4 1.4c0 .936.186 1.4.563 1.4.364 0 .489.28.354.795-.132.504.028.886.438 1.043.355.136.645.678.645 1.205 0 .526.18.957.4.957s.4.546.4 1.213c0 .708.249 1.308.6 1.442.33.127.6.642.6 1.145s.267 1.017.593 1.142c.336.129.492.493.359.839-.137.358.032.715.406.858.353.136.642.6.642 1.032 0 .433.262 1.048.583 1.369s.481.848.357 1.172c-.141.367.016.588.417.588.419 0 .643.348.643 1 0 .55.18 1 .4 1s.4.45.4 1c0 .622.227 1 .6 1s.6.378.6 1c0 .55.18 1 .4 1s.4.45.4 1c0 .622.227 1 .6 1s.6.378.6 1c0 .55.18 1 .4 1s.4.27.4.6.27.6.6.6c.373 0 .6.378.6 1 0 .55.18 1 .4 1s.4.335.4.744.45 1.082 1 1.495c.551.414 1 1.157 1 1.656 0 .538.243.905.6.905.34 0 .6.359.6.829 0 .885.866 1.971 1.571 1.971.236 0 .429.45.429 1s.18 1 .4 1 .4.27.4.6.27.6.6.6c.34 0 .6.359.6.829 0 .885.866 1.971 1.571 1.971.236 0 .429.27.429.6s.18.6.4.6.4.45.4 1 .193 1 .429 1c.553 0 1.571 1.018 1.571 1.571 0 .236.289.429.643.429.406 0 .558.22.413.598-.14.365.388 1.227 1.357 2.216.873.89 1.587 1.881 1.587 2.202s.289.584.643.584c.407 0 .558.22.412.6-.14.365 0 .6.358.6.323 0 .587.193.587.429 0 .553 1.018 1.571 1.571 1.571.236 0 .429.193.429.429 0 .553 1.018 1.571 1.571 1.571.236 0 .429.373.429.829 0 .885.866 1.971 1.571 1.971.236 0 .429.193.429.429 0 .553 1.018 1.571 1.571 1.571.236 0 .429.193.429.429 0 .553 1.018 1.571 1.571 1.571.236 0 .429.193.429.429 0 .553 1.018 1.571 1.571 1.571.236 0 .429.193.429.429 0 .553 1.018 1.571 1.571 1.571.236 0 .429.193.429.429 0 .553 1.018 1.571 1.571 1.571.236 0 .429.193.429.429 0 .553 1.018 1.571 1.571 1.571.236 0 .429.193.429.429 0 .553 1.018 1.571 1.571 1.571.236 0 .429.27.429.6 0 .333.356.6.8.6.44 0 .8.18.8.4s.27.4.6.4.6.27.6.6.281.6.624.6.512.18.376.4.033.4.376.4.624.27.624.6.281.6.624.6.512.18.376.4.033.4.376.4.624.168.624.373.394.498.875.651c.481.152 1.447.884 2.147 1.627.7.742 1.656 1.349 2.125 1.349s.853.193.853.429c0 .553 1.018 1.571 1.571 1.571.236 0 .429.18.429.4s.45.4 1 .4 1 .193 1 .429c0 .553 1.018 1.571 1.571 1.571.236 0 .429.27.429.6 0 .34.359.6.829.6.885 0 1.971.866 1.971 1.571 0 .236.45.429 1 .429s1 .18 1 .4.27.4.6.4.6.27.6.6c0 .373.378.6 1 .6.55 0 1 .18 1 .4s.45.4 1 .4 1 .193 1 .429c0 .705 1.086 1.571 1.971 1.571.47 0 .829.26.829.6 0 .357.367.6.905.6.499 0 1.242.449 1.656 1 .413.55 1.086 1 1.495 1s.744.18.744.4.45.4 1 .4c.622 0 1 .227 1 .6s.378.6 1 .6c.55 0 1 .18 1 .4s.45.4 1 .4c.622 0 1 .227 1 .6s.378.6 1 .6c.55 0 1 .18 1 .4s.45.4 1 .4c.622 0 1 .227 1 .6s.378.6 1 .6c.55 0 1 .18 1 .4s.431.4.957.4c.527 0 1.061.27 1.188.6.126.33.596.6 1.042.6.447 0 .813.18.813.4s.611.4 1.357.4c.838 0 1.446.23 1.588.6.126.33.686.6 1.242.6.557 0 1.013.18 1.013.4s.373.4.829.4c.455 0 1.098.27 1.428.6s1.037.6 1.572.6c.534 0 .971.18.971.4s.63.4 1.4.4 1.4.18 1.4.4.72.4 1.6.4c1.156 0 1.6.167 1.6.6 0 .369.375.6.976.6.537 0 1.088.18 1.224.4s1.047.4 2.024.4c1.312 0 1.776.157 1.776.6 0 .419.422.6 1.4.6.77 0 1.4.18 1.4.4s.9.4 2 .4c1.511 0 2 .147 2 .6 0 .433.444.6 1.6.6.88 0 1.6.18 1.6.4 0 .222 1.067.4 2.4.4 1.867 0 2.4.133 2.4.6 0 .453.489.6 2 .6 1.1 0 2 .18 2 .4 0 .229 1.208.4 2.824.4 1.56 0 2.724.16 2.602.358-.356.576.846.842 3.807.842 1.578 0 2.767.172 2.767.4 0 .239 1.538.4 3.813.4 3.019 0 3.86.125 4.042.6.349.908 40.052.908 40.4 0 .184-.477 1.039-.6 4.188-.6 2.371 0 3.957-.16 3.957-.4 0-.231 1.25-.4 2.951-.4 2.135 0 3.089-.166 3.449-.6.347-.419 1.269-.6 3.049-.6 1.434 0 2.551-.175 2.551-.4 0-.22.9-.4 2-.4 1.511 0 2-.147 2-.6 0-.467.533-.6 2.4-.6 1.333 0 2.4-.178 2.4-.4 0-.22.636-.4 1.413-.4.886 0 1.498-.223 1.642-.6.157-.407.795-.6 1.988-.6.966 0 1.757-.18 1.757-.4s.72-.4 1.6-.4c1.156 0 1.6-.167 1.6-.6 0-.444.467-.6 1.8-.6.99 0 1.8-.18 1.8-.4s.54-.4 1.2-.4c.8 0 1.2-.2 1.2-.6 0-.419.422-.6 1.4-.6.77 0 1.4-.18 1.4-.4s.72-.4 1.6-.4 1.6-.16 1.6-.355c0-.196.63-.474 1.4-.619.77-.144 1.4-.434 1.4-.644s.45-.382 1-.382 1-.18 1-.4.45-.4 1-.4c.622 0 1-.227 1-.6 0-.419.422-.6 1.4-.6.77 0 1.4-.18 1.4-.4s.45-.4 1-.4c.622 0 1-.227 1-.6s.378-.6 1-.6c.55 0 1-.18 1-.4s.45-.4 1-.4c.622 0 1-.227 1-.6s.378-.6 1-.6c.55 0 1-.18 1-.4s.45-.4 1-.4c.622 0 1-.227 1-.6s.378-.6 1-.6c.55 0 1-.18 1-.4s.45-.4 1-.4c.622 0 1-.227 1-.6s.378-.6 1-.6c.55 0 1-.18 1-.4s.45-.4 1-.4c.622 0 1-.227 1-.6 0-.33.27-.6.6-.6s.6-.18.6-.4.366-.4.813-.4c.446 0 .916-.27 1.042-.6.127-.33.584-.6 1.016-.6.85 0 1.929-.879 1.929-1.571 0-.236.45-.429 1-.429s1-.18 1-.4.45-.4 1-.4 1-.193 1-.429c0-.705 1.086-1.571 1.971-1.571.47 0 .829-.26.829-.6 0-.33.27-.6.6-.6s.6-.18.6-.4.335-.4.744-.4 1.082-.45 1.495-1 .978-1 1.256-1 .505-.27.505-.6c0-.358.368-.6.912-.6.501 0 1.171-.36 1.488-.8s.807-.8 1.088-.8c.282 0 .512-.27.512-.6 0-.34.359-.6.829-.6.885 0 1.971-.866 1.971-1.571 0-.236.193-.429.429-.429.235 0 .679-.225.986-.5 1.223-1.097 1.763-1.5 2.01-1.5.142 0 1.315-1.08 2.607-2.4 1.291-1.32 2.597-2.4 2.902-2.4s.892-.45 1.305-1 .978-1 1.256-1 .505-.193.505-.429c0-.553 1.018-1.571 1.571-1.571.236 0 .429-.193.429-.429 0-.553 1.018-1.571 1.571-1.571.236 0 .429-.193.429-.429 0-.553 1.018-1.571 1.571-1.571.236 0 .429-.193.429-.429 0-.553 1.018-1.571 1.571-1.571.236 0 .429-.193.429-.429 0-.553 1.018-1.571 1.571-1.571.236 0 .429-.193.429-.429 0-.553 1.018-1.571 1.571-1.571.236 0 .429-.227.429-.505s.45-.843 1-1.256 1-1 1-1.305 1.08-1.611 2.4-2.902c1.32-1.292 2.4-2.47 2.4-2.619s.225-.521.5-.828c1.187-1.323 1.5-1.776 1.5-2.168 0-.229.193-.417.429-.417.705 0 1.571-1.086 1.571-1.971 0-.47.26-.829.6-.829.33 0 .6-.23.6-.512 0-.281.36-.771.8-1.088s.8-.987.8-1.488c0-.544.242-.912.6-.912.33 0 .6-.227.6-.505s.45-.843 1-1.256 1-1.086 1-1.495.18-.744.4-.744.4-.27.4-.6.27-.6.6-.6c.34 0 .6-.359.6-.829 0-.885.866-1.971 1.571-1.971.236 0 .429-.45.429-1s.18-1 .4-1 .4-.45.4-1 .193-1 .429-1c.692 0 1.571-1.079 1.571-1.929 0-.432.27-.889.6-1.016.33-.126.6-.596.6-1.042 0-.447.18-.813.4-.813s.4-.27.4-.6.27-.6.6-.6c.373 0 .6-.378.6-1 0-.55.18-1 .4-1s.4-.45.4-1c0-.622.227-1 .6-1s.6-.378.6-1c0-.55.18-1 .4-1s.4-.45.4-1c0-.622.227-1 .6-1s.6-.378.6-1c0-.55.18-1 .4-1s.4-.45.4-1c0-.622.227-1 .6-1s.6-.378.6-1c0-.55.18-1 .4-1s.4-.45.4-1c0-.622.227-1 .6-1s.6-.378.6-1c0-.55.18-1 .4-1s.4-.63.4-1.4c0-.978.181-1.4.6-1.4.373 0 .6-.378.6-1 0-.55.18-1 .4-1s.4-.45.4-1 .172-1 .382-1 .5-.63.644-1.4c.145-.77.423-1.4.619-1.4.195 0 .355-.72.355-1.6s.18-1.6.4-1.6.4-.63.4-1.4c0-.978.181-1.4.6-1.4.4 0 .6-.4.6-1.2 0-.66.18-1.2.4-1.2s.4-.81.4-1.8c0-1.333.156-1.8.6-1.8.433 0 .6-.444.6-1.6 0-.88.18-1.6.4-1.6s.4-.791.4-1.757c0-1.193.193-1.831.6-1.988.377-.144.6-.756.6-1.642 0-.777.18-1.413.4-1.413.222 0 .4-1.067.4-2.4 0-1.867.133-2.4.6-2.4.453 0 .6-.489.6-2 0-1.1.18-2 .4-2 .225 0 .4-1.117.4-2.551 0-1.78.181-2.702.6-3.049.434-.36.6-1.314.6-3.449 0-1.701.169-2.951.4-2.951.24 0 .4-1.586.4-3.957 0-3.149.123-4.004.6-4.188.908-.348.908-40.051 0-40.4-.475-.182-.6-1.023-.6-4.042 0-2.275-.161-3.813-.4-3.813-.228 0-.4-1.189-.4-2.767 0-2.961-.266-4.163-.842-3.807-.198.122-.358-1.042-.358-2.602 0-1.616-.171-2.824-.4-2.824-.22 0-.4-.9-.4-2 0-1.511-.147-2-.6-2-.467 0-.6-.533-.6-2.4 0-1.333-.178-2.4-.4-2.4-.22 0-.4-.72-.4-1.6 0-1.156-.167-1.6-.6-1.6-.453 0-.6-.489-.6-2 0-1.1-.18-2-.4-2s-.4-.63-.4-1.4c0-.978-.181-1.4-.6-1.4-.443 0-.6-.464-.6-1.776 0-.977-.18-1.888-.4-2.024s-.4-.687-.4-1.224c0-.601-.231-.976-.6-.976-.433 0-.6-.444-.6-1.6 0-.88-.18-1.6-.4-1.6s-.4-.63-.4-1.4-.18-1.4-.4-1.4-.4-.437-.4-.971c0-.535-.27-1.242-.6-1.572s-.6-.973-.6-1.428c0-.456-.18-.829-.4-.829s-.4-.456-.4-1.013c0-.556-.27-1.116-.6-1.242-.37-.142-.6-.75-.6-1.588 0-.746-.18-1.357-.4-1.357s-.4-.366-.4-.813c0-.446-.27-.916-.6-1.042-.33-.127-.6-.661-.6-1.188 0-.526-.18-.957-.4-.957s-.4-.45-.4-1c0-.622-.227-1-.6-1s-.6-.378-.6-1c0-.55-.18-1-.4-1s-.4-.45-.4-1c0-.622-.227-1-.6-1s-.6-.378-.6-1c0-.55-.18-1-.4-1s-.4-.45-.4-1c0-.622-.227-1-.6-1s-.6-.378-.6-1c0-.55-.18-1-.4-1s-.4-.335-.4-.744-.45-1.082-1-1.495c-.551-.414-1-1.157-1-1.656 0-.538-.243-.905-.6-.905-.34 0-.6-.359-.6-.829 0-.885-.866-1.971-1.571-1.971-.236 0-.429-.45-.429-1s-.18-1-.4-1-.4-.45-.4-1c0-.622-.227-1-.6-1-.33 0-.6-.27-.6-.6s-.18-.6-.4-.6-.4-.45-.4-1-.193-1-.429-1c-.705 0-1.571-1.086-1.571-1.971 0-.47-.26-.829-.6-.829-.33 0-.6-.193-.6-.429 0-.553-1.018-1.571-1.571-1.571-.236 0-.429-.45-.429-1s-.18-1-.4-1-.4-.193-.4-.429c0-.553-1.018-1.571-1.571-1.571-.236 0-.429-.384-.429-.853s-.607-1.425-1.349-2.125c-.743-.7-1.475-1.666-1.627-2.147-.153-.481-.446-.875-.651-.875s-.373-.281-.373-.624-.18-.512-.4-.376-.4-.033-.4-.376-.27-.624-.6-.624-.6-.281-.6-.624-.18-.512-.4-.376-.4-.033-.4-.376-.27-.624-.6-.624-.6-.27-.6-.6-.18-.6-.4-.6-.4-.36-.4-.8c0-.444-.267-.8-.6-.8-.33 0-.6-.193-.6-.429 0-.553-1.018-1.571-1.571-1.571-.236 0-.429-.193-.429-.429 0-.553-1.018-1.571-1.571-1.571-.236 0-.429-.193-.429-.429 0-.553-1.018-1.571-1.571-1.571-.236 0-.429-.193-.429-.429 0-.553-1.018-1.571-1.571-1.571-.236 0-.429-.193-.429-.429 0-.553-1.018-1.571-1.571-1.571-.236 0-.429-.193-.429-.429 0-.553-1.018-1.571-1.571-1.571-.236 0-.429-.193-.429-.429 0-.553-1.018-1.571-1.571-1.571-.236 0-.429-.193-.429-.429 0-.705-1.086-1.571-1.971-1.571-.456 0-.829-.193-.829-.429 0-.553-1.018-1.571-1.571-1.571-.236 0-.429-.193-.429-.429 0-.553-1.018-1.571-1.571-1.571-.236 0-.429-.264-.429-.587 0-.358-.235-.498-.6-.358-.38.146-.6-.005-.6-.412 0-.354-.263-.643-.584-.643s-1.312-.714-2.202-1.587c-.989-.969-1.851-1.497-2.216-1.357-.378.145-.598-.007-.598-.413 0-.354-.193-.643-.429-.643-.553 0-1.571-1.018-1.571-1.571 0-.236-.45-.429-1-.429s-1-.18-1-.4-.27-.4-.6-.4-.6-.193-.6-.429c0-.705-1.086-1.571-1.971-1.571-.47 0-.829-.26-.829-.6 0-.33-.27-.6-.6-.6s-.6-.18-.6-.4-.45-.4-1-.4-1-.193-1-.429c0-.705-1.086-1.571-1.971-1.571-.47 0-.829-.26-.829-.6 0-.357-.367-.6-.905-.6-.499 0-1.242-.449-1.656-1-.413-.55-1.086-1-1.495-1s-.744-.18-.744-.4-.45-.4-1-.4c-.622 0-1-.227-1-.6 0-.33-.27-.6-.6-.6s-.6-.18-.6-.4-.45-.4-1-.4c-.622 0-1-.227-1-.6s-.378-.6-1-.6c-.55 0-1-.18-1-.4s-.45-.4-1-.4c-.622 0-1-.227-1-.6s-.378-.6-1-.6c-.55 0-1-.18-1-.4s-.45-.4-1-.4c-.652 0-1-.224-1-.643 0-.401-.221-.558-.588-.417-.324.124-.851-.036-1.172-.357s-.936-.583-1.369-.583c-.432 0-.896-.289-1.032-.642-.143-.374-.5-.543-.858-.406-.346.133-.71-.023-.839-.359-.125-.326-.639-.593-1.142-.593s-1.018-.27-1.145-.6c-.134-.351-.734-.6-1.442-.6-.667 0-1.213-.18-1.213-.4s-.431-.4-.957-.4c-.527 0-1.069-.29-1.205-.645-.157-.41-.539-.57-1.043-.438-.515.135-.795.01-.795-.354 0-.377-.464-.563-1.4-.563-.77 0-1.4-.18-1.4-.4s-.72-.4-1.6-.4c-1.156 0-1.6-.167-1.6-.6 0-.419-.422-.6-1.4-.6-.77 0-1.4-.18-1.4-.4s-.521-.4-1.157-.4c-.66 0-1.256-.258-1.388-.6-.152-.396-.778-.6-1.842-.6-.887 0-1.613-.18-1.613-.4s-.72-.4-1.6-.4c-1.156 0-1.6-.167-1.6-.6 0-.444-.467-.6-1.8-.6-.99 0-1.8-.18-1.8-.4s-.643-.4-1.429-.4c-.785 0-1.698-.27-2.028-.6-.371-.371-1.353-.6-2.572-.6-1.084 0-1.971-.18-1.971-.4s-.881-.4-1.957-.4c-1.371 0-2.026-.18-2.188-.6-.171-.448-.887-.6-2.819-.6-1.424 0-2.7-.18-2.836-.4s-1.587-.4-3.224-.4c-2.379 0-2.976-.12-2.976-.6 0-.493-.711-.6-4-.6-2.4 0-4-.16-4-.4 0-.261-7-.4-20.2-.4s-20.2.139-20.2.4m36.3 78.382c1.155 2.299 2.1 4.504 2.1 4.9 0 .395.18.718.4.718s.4.274.4.608.45 1.321 1 2.192 1 1.753 1 1.96c0 .206.258.885.573 1.508.316.622 1.511 3.112 2.656 5.532 1.146 2.42 2.238 4.713 2.427 5.095s.344 1.057.344 1.5.145.805.323.805.643.765 1.034 1.7c.39.935.946 2.24 1.234 2.9.289.66.704 1.65.924 2.2.51 1.278 2.322 5.237 3.541 7.737.519 1.065.944 2.28.944 2.7s.18.763.4.763.4.198.4.44c0 .241.288 1.096.641 1.9.352.803.824 1.91 1.049 2.46.224.55.656 1.478.959 2.062s.551 1.424.551 1.866c0 .443.148.865.329.939.181.073.92 1.573 1.641 3.333.722 1.76 1.473 3.371 1.671 3.58.197.209.359.687.359 1.063 0 .578.928 2.728 2.441 5.652.197.382.365 1.012.372 1.4s.277 1.054.6 1.481c.323.428.587 1.103.587 1.5 0 .398.18.724.4.724s.402.315.404.7.446 1.6.987 2.7.995 2.27 1.009 2.6.29.949.613 1.376c.323.428.587 1.193.587 1.7 0 .508.18.924.4.924s.4.287.4.638.296 1.206.657 1.9c1.232 2.365 1.343 2.651 1.343 3.457 0 .443.172.805.382.805s.5.632.645 1.404c.145.773.423 1.503.618 1.624s.355.659.355 1.196.166.976.368.976c.203 0 .487.538.631 1.195.144.658.429 1.299.632 1.424.203.126.369.668.369 1.205s.172.976.382.976.5.632.645 1.404c.145.773.423 1.503.618 1.624s.355.542.355.936.45 1.563 1 2.598c.55 1.034 1 2.143 1 2.465 0 .589.119.884 1.332 3.305.368.733.668 1.668.668 2.077s.16.843.356.964c.195.121.477.704.626 1.296.148.593.618 1.798 1.044 2.679s.774 1.894.774 2.251c0 .356.264.997.587 1.425.323.427.593 1.17.6 1.652s.179.979.382 1.105c.203.125.495.799.648 1.497.153.697.617 1.871 1.031 2.607.414.737.752 1.659.752 2.051 0 .391.264 1.06.587 1.488.323.427.593 1.17.6 1.652s.193.988.413 1.124.402.552.404.924.446 1.576.987 2.676.995 2.36 1.009 2.8.29 1.149.613 1.576c.323.428.587 1.193.587 1.7 0 .508.18.924.4.924s.4.377.4.838.296 1.406.657 2.1c1.217 2.336 1.343 2.649 1.356 3.357.007.388.277 1.054.6 1.481.323.428.587 1.182.587 1.677s.18 1.011.4 1.147.4.599.4 1.029.168 1.094.374 1.476c.843 1.564 1.626 3.448 1.626 3.911 0 .271.269 1.008.598 1.638.328.63.598 1.45.6 1.822.001.372.182.788.402.924s.402.552.404.924.446 1.576.987 2.676.99 2.294.996 2.654c.007.36.282 1.17.611 1.8.328.63.598 1.45.6 1.822.001.372.182.788.402.924s.4.777.4 1.424.18 1.176.4 1.176.4.326.4.724c0 .397.264 1.072.587 1.5.323.427.593 1.17.6 1.652s.193.988.413 1.124.401.552.402.924c.002.372.272 1.192.6 1.822.329.63.598 1.449.598 1.82s.155.845.344 1.054.676 1.37 1.081 2.58.88 2.371 1.056 2.58c.175.209.32.659.321 1 .002.341.272 1.136.6 1.766.329.63.598 1.487.598 1.905s.171 1.072.381 1.454c.209.382.677 1.415 1.04 2.295s.859 2.017 1.101 2.526c1.082 2.273 1.143 2.264-16.606 2.378l-16.198.105-1.059-2.041c-.582-1.123-1.059-2.465-1.059-2.981 0-.517-.163-1.041-.363-1.164-.2-.124-.678-1.259-1.064-2.524-.385-1.264-.968-2.839-1.294-3.499s-.748-1.513-.936-1.895c-.189-.382-.343-1.036-.343-1.454s-.269-1.275-.598-1.905c-.328-.63-.598-1.45-.6-1.822-.001-.372-.182-.788-.402-.924s-.4-.599-.4-1.029-.158-1.094-.351-1.476c-.825-1.632-1.649-3.762-1.649-4.263 0-.297-.269-1.056-.598-1.686-.328-.63-.598-1.54-.6-2.022-.001-.482-.182-.988-.402-1.124s-.4-.651-.4-1.144-.155-1.067-.344-1.276-.661-1.37-1.048-2.58c-.388-1.21-.834-2.47-.992-2.8s-.607-1.68-.997-3c-.391-1.32-1.14-3.35-1.665-4.511s-.954-2.455-.954-2.876-.18-.877-.4-1.013-.4-.676-.4-1.2c0-1.453 2.173-1.39-48.218-1.405l-47.51-.014-.477 1.109c-.262.611-.798 2.1-1.192 3.31-.393 1.21-.87 2.371-1.059 2.58s-.344.783-.344 1.276-.18 1.008-.4 1.144-.4.764-.4 1.395-.27 1.418-.6 1.748-.6.975-.6 1.434c0 .835-.091 1.078-1.332 3.555-.368.733-.668 1.668-.668 2.077s-.18.855-.4.991-.406.732-.413 1.324-.277 1.425-.6 1.852c-.323.428-.587 1.105-.587 1.506 0 .732-.101.993-1.332 3.45-.368.733-.668 1.668-.668 2.077s-.18.855-.4.991-.401.642-.402 1.124c-.002.482-.272 1.392-.6 2.022-.329.63-.598 1.449-.598 1.82s-.144.845-.319 1.054c-.176.209-.651 1.37-1.056 2.58s-.892 2.371-1.081 2.58-.344.85-.344 1.424c0 .573-.264 1.392-.587 1.82-.323.427-.593 1.093-.6 1.481s-.17 1.018-.361 1.4-.729 1.55-1.195 2.595l-.847 1.9h-15.418-15.418l-.345-.9c-.198-.516-.193-1.062.013-1.28.197-.209.358-.794.358-1.3s.18-.92.4-.92.4-.416.4-.924c0-.507.264-1.272.587-1.7.323-.427.593-1.26.6-1.852s.193-1.188.413-1.324.4-.507.4-.826c0-.318.45-1.511 1-2.651s1-2.365 1-2.721c0-.357.264-.998.587-1.426.323-.427.593-1.26.6-1.852s.193-1.188.413-1.324.4-.582.4-.991.3-1.344.668-2.077c1.225-2.445 1.332-2.717 1.345-3.427.007-.388.277-1.054.6-1.481.323-.428.587-1.182.587-1.677s.18-1.011.4-1.147.4-.614.4-1.062.296-1.382.657-2.076c1.217-2.336 1.343-2.649 1.356-3.357.007-.388.277-1.054.6-1.481.323-.428.587-1.182.587-1.677s.18-1.011.4-1.147.4-.597.4-1.026c0-.428.45-1.711 1-2.851s1-2.388 1-2.774.16-.8.355-.921.473-.851.618-1.624c.145-.772.435-1.404.645-1.404s.382-.338.382-.751c0-.797 1.207-4.053 2.396-6.462.166-.337.429-1.19.584-1.896.155-.705.448-1.385.651-1.51.203-.126.369-.578.369-1.007 0-.428.45-1.711 1-2.851s1-2.311 1-2.603.158-.843.351-1.225c.938-1.855 1.649-3.799 1.649-4.509 0-.432.18-.786.4-.786s.4-.288.4-.64c0-.596.792-2.658 1.634-4.255.201-.382.366-1.035.366-1.451s.27-.98.6-1.254.6-.928.6-1.454.154-1.269.341-1.651c.188-.382.658-1.415 1.044-2.295.387-.88.864-1.913 1.059-2.295.196-.382.356-1.035.356-1.451s.27-.98.6-1.254.6-.838.6-1.254.166-1.069.368-1.451c.203-.382.857-1.955 1.453-3.495.597-1.54 1.331-3.367 1.632-4.06.301-.694.547-1.538.547-1.877s.18-.727.4-.863.4-.502.4-.813.472-1.605 1.048-2.876c1.911-4.213 2.152-4.827 2.152-5.471 0-.352.18-.64.4-.64s.4-.371.4-.825c0-.702 1.264-3.889 2.374-5.988.178-.337.451-1.192.607-1.9.155-.708.448-1.287.651-1.287.202 0 .368-.355.368-.789s.472-1.829 1.048-3.1 1.305-2.941 1.619-3.711c.315-.77.743-1.713.952-2.095.21-.382.381-.933.381-1.224 0-.292.336-1.24.747-2.106s1.052-2.295 1.425-3.175c.372-.88.936-2.11 1.252-2.732.317-.623.576-1.379.576-1.679 0-.301.45-1.393 1-2.427.55-1.035 1-2.124 1-2.422 0-.297.18-.54.4-.54s.4-.428.4-.951.27-1.175.6-1.449.6-.838.6-1.254.162-1.069.359-1.451c1.406-2.718 2.441-5.05 2.441-5.499 0-.292.253-1.041.562-1.664.651-1.312 3.347-7.154 3.846-8.332.186-.44.64-1.52 1.008-2.4 1.181-2.818 1.976-4.396 2.284-4.533.165-.074.3-.558.3-1.077 0-.518.166-1.045.369-1.171.203-.125.488-.766.632-1.424.144-.657.428-1.195.631-1.195.202 0 .368-.364.368-.808s.45-1.521 1-2.392 1-1.751 1-1.955.425-1.243.944-2.308c2.441-5.007 3.056-6.385 3.056-6.843 0-.272.18-.494.4-.494s.4-.338.4-.751.27-.975.6-1.249.6-.926.6-1.449.18-.951.4-.951.4-.167.4-.371c0-.694 2.745-6.317 3.408-6.98.591-.591 2.073-.649 14.326-.554l13.666.105zm-17.742 33.918c-.119.385-.383 1.013-.587 1.395s-.371.945-.371 1.251-.27.78-.6 1.054-.6.926-.6 1.449-.18.951-.4.951-.4.175-.4.389-.464 1.429-1.03 2.7c-.567 1.271-1.264 2.851-1.55 3.511s-1.172 2.555-1.97 4.211c-.797 1.656-1.45 3.216-1.45 3.467 0 .252-.253.967-.563 1.59-.59 1.186-.891 1.906-2.101 5.031-.405 1.044-.871 1.899-1.036 1.9-.165 0-.3.417-.3.925 0 .507-.264 1.272-.587 1.7-.323.427-.593 1.093-.6 1.481s-.186 1.018-.397 1.4c-.777 1.404-2.416 5.184-2.416 5.572 0 .385-.845 2.368-1.626 3.818-.206.382-.374.888-.374 1.124 0 .237-.427 1.364-.95 2.506-.522 1.141-1.287 3.198-1.7 4.572-.412 1.373-.885 2.498-1.05 2.5-.165.001-.3.365-.3.808 0 .808-.093 1.055-1.332 3.527-.368.733-.668 1.678-.668 2.1 0 .423-.18.768-.4.768s-.4.467-.4 1.038-.251 1.516-.558 2.1-1.041 2.322-1.632 3.862c-.59 1.54-1.239 3.113-1.442 3.495-.202.382-.368 1.022-.368 1.423s-.264 1.078-.587 1.506c-.323.427-.593 1.147-.6 1.601s-.463 1.758-1.013 2.898-1 2.423-1 2.851c0 .429-.18.89-.4 1.026s-.4.59-.4 1.01c0 .689-.72 2.647-1.649 4.485-.193.382-.351.939-.351 1.238 0 .508-.757 2.35-1.629 3.967-.359.664 1.574.7 38.026.7 27.639 0 38.403-.123 38.403-.44 0-.429-.902-2.667-1.634-4.055-.201-.382-.366-1.022-.366-1.423s-.264-1.078-.587-1.506c-.323-.427-.593-1.271-.6-1.876s-.193-1.1-.413-1.1-.4-.332-.4-.739c0-.673-.665-2.372-1.626-4.156-.206-.382-.374-.946-.374-1.254s-.269-1.075-.598-1.705c-.328-.63-.598-1.45-.6-1.822-.001-.372-.182-.788-.402-.924s-.4-.563-.4-.949-.45-1.634-1-2.774-1.006-2.389-1.013-2.775-.277-1.051-.6-1.478c-.323-.428-.587-1.182-.587-1.677s-.18-1.011-.4-1.147-.4-.578-.4-.983c0-.404-.448-1.519-.995-2.476-.548-.958-.998-2.135-1-2.617-.003-.482-.185-.988-.405-1.124s-.401-.552-.402-.924c-.002-.372-.272-1.192-.6-1.822-.329-.63-.598-1.361-.598-1.625s-.45-1.412-1-2.552-1-2.256-1-2.48c0-.225-.162-.72-.359-1.102s-.671-1.505-1.054-2.495c-.382-.99-1.12-2.75-1.641-3.911-.52-1.161-.946-2.376-.946-2.7s-.18-.589-.4-.589-.4-.416-.4-.924c0-.507-.264-1.272-.587-1.7-.323-.427-.593-1.181-.6-1.676s-.149-.9-.315-.9c-.291 0-1.108-2.031-1.569-3.9-.122-.495-.381-.9-.576-.9-.194 0-.353-.345-.353-.768 0-.422-.253-1.277-.563-1.9-.31-.622-.738-1.582-.952-2.132s-.861-1.962-1.437-3.137c-.577-1.175-1.048-2.48-1.048-2.9s-.166-.763-.368-.763c-.203 0-.487-.538-.631-1.195-.144-.658-.429-1.299-.632-1.424-.203-.126-.369-.559-.369-.964 0-.404-.448-1.519-.995-2.476-.548-.958-.998-2.056-1-2.441-.003-.385-.185-.7-.405-.7s-.4-.198-.4-.44c0-.405-.656-2.042-1.708-4.26-.509-1.073-1.431-1.179-1.734-.2" fill="#8444b4"/><path d="m223.636 96.6c0 .22.434 1.21.964 2.2s.964 1.62.964 1.4-.434-1.21-.964-2.2-.964-1.62-.964-1.4m-48.771 5.217c-.67 1.471-.542 1.785.182.448.339-.625.541-1.211.449-1.302-.091-.092-.375.293-.631.854m53.535 5.461c0 .127.269.746.598 1.376.328.63.592.876.587.546-.006-.33-.275-.949-.598-1.376-.323-.428-.587-.673-.587-.546m-57.612 3.544c-.242.452-.381 1-.308 1.217.072.218.338-.152.591-.822.526-1.392.368-1.612-.283-.395m28.412 1.978c-.495.32-.456.389.22.394.451.003 1.076.231 1.389.506.314.275.232.095-.182-.4-.413-.495-.768-.897-.789-.894s-.308.181-.638.394m-30.885 3.81c-.123.435-.346 1.15-.495 1.59s.022.294.38-.324.581-1.334.495-1.59c-.085-.256-.256-.11-.38.324m64.913 1.59c0 .22.258.85.572 1.4s.572.82.572.6-.258-.85-.572-1.4-.572-.82-.572-.6m-37.163 1.217c-.67 1.471-.542 1.785.182.448.339-.625.541-1.211.449-1.302-.091-.092-.375.293-.631.854m7.163-.017c0 .22.258.85.572 1.4s.572.82.572.6-.258-.85-.572-1.4-.572-.82-.572-.6m1.987 4.6c.006.33.275.949.598 1.376.755.999.75.629-.011-.83-.328-.63-.592-.876-.587-.546m31.199 1.254c-.008.14.249.86.57 1.6.322.74.585 1.076.586.746.002-.576-1.127-2.866-1.156-2.346m-29.186 3.346c0 .22.258.85.572 1.4s.572.82.572.6-.258-.85-.572-1.4-.572-.82-.572-.6m-18.913 8.41c-.123.435-.346 1.15-.495 1.59s.022.294.38-.324.581-1.334.495-1.59c-.085-.256-.256-.11-.38.324m22.915.99c-.002.576 1.127 2.866 1.156 2.346.008-.14-.249-.86-.57-1.6-.322-.74-.585-1.076-.586-.746m1.998 5c0 .22.258.85.572 1.4s.572.82.572.6-.258-.85-.572-1.4-.572-.82-.572-.6m2 5.2c0 .22.258.85.572 1.4s.572.82.572.6-.258-.85-.572-1.4-.572-.82-.572-.6m-31.963 1.217c-.67 1.471-.542 1.785.182.448.339-.625.541-1.211.449-1.302-.091-.092-.375.293-.631.854m-29.2.8c-.67 1.471-.542 1.785.182.448.339-.625.541-1.211.449-1.302-.091-.092-.375.293-.631.854m93.163 1.183c0 .22.258.85.572 1.4s.572.82.572.6-.258-.85-.572-1.4-.572-.82-.572-.6m2.122 5c.351 1.299 1.559 4.024 1.715 3.868.091-.09-.295-1.133-.856-2.316-.562-1.184-.948-1.882-.859-1.552m-69.285 1.017c-.67 1.471-.542 1.785.182.448.339-.625.541-1.211.449-1.302-.091-.092-.375.293-.631.854m41.149 5.437c-.008.14.249.86.57 1.6.322.74.585 1.076.586.746.002-.576-1.127-2.866-1.156-2.346m-73.226 2.368c-.242.452-.381 1-.308 1.217.072.218.338-.152.591-.822.526-1.392.368-1.612-.283-.395m76.042 5.178c-.002.576 1.127 2.866 1.156 2.346.008-.14-.249-.86-.57-1.6-.322-.74-.585-1.076-.586-.746m2 5.2c-.002.576 1.127 2.866 1.156 2.346.008-.14-.249-.86-.57-1.6-.322-.74-.585-1.076-.586-.746m1.198 3.4c0 .22.258.85.572 1.4s.572.82.572.6-.258-.85-.572-1.4-.572-.82-.572-.6m-57.713 6.01c-.123.435-.346 1.15-.495 1.59s.022.294.38-.324.581-1.334.495-1.59c-.085-.256-.256-.11-.38.324m-2 5.6c-.123.435-.346 1.15-.495 1.59s.022.294.38-.324.581-1.334.495-1.59c-.085-.256-.256-.11-.38.324m-30.25 1.607c-.67 1.471-.542 1.785.182.448.339-.625.541-1.211.449-1.302-.091-.092-.375.293-.631.854m94.765-.617c-.002.576 1.127 2.866 1.156 2.346.008-.14-.249-.86-.57-1.6-.322-.74-.585-1.076-.586-.746m33.986 6.654c-.009.25.247 1.06.568 1.8.322.74.592 1.142.6.892.009-.25-.247-1.06-.568-1.8-.322-.74-.592-1.142-.6-.892m-132.751 4.363c-.256.561-.458 1.237-.449 1.502.008.264.281-.131.606-.88.683-1.574.539-2.149-.157-.622m103.753 2.683c.15.495.437 1.076.638 1.291s.163-.19-.084-.9c-.507-1.453-.975-1.783-.554-.391m-75.753 2.517c-.256.561-.458 1.237-.449 1.502.008.264.281-.131.606-.88.683-1.574.539-2.149-.157-.622m108.749 1.037c-.008.14.249.86.57 1.6.322.74.585 1.076.586.746.002-.576-1.127-2.866-1.156-2.346m-140.749 4.163c-.256.561-.458 1.237-.449 1.502.008.264.281-.131.606-.88.683-1.574.539-2.149-.157-.622m145.565 8.583c-.002.576 1.127 2.866 1.156 2.346.008-.14-.249-.86-.57-1.6-.322-.74-.585-1.076-.586-.746m-122.881 13.5c-.486.62-.476.643.09.202.5-.39 10.891-.521 47.8-.602l47.161-.103-47.251-.099c-44.593-.092-47.282-.059-47.8.602m96.081.9c-.002.576 1.127 2.866 1.156 2.346.008-.14-.249-.86-.57-1.6-.322-.74-.585-1.076-.586-.746m33.998 5c0 .22.258.85.572 1.4s.572.82.572.6-.258-.85-.572-1.4-.572-.82-.572-.6m-133.313 2.41c-.123.435-.346 1.15-.495 1.59s.022.294.38-.324.581-1.334.495-1.59c-.085-.256-.256-.11-.38.324m102.115.59c-.002.576 1.127 2.866 1.156 2.346.008-.14-.249-.86-.57-1.6-.322-.74-.585-1.076-.586-.746m-133.565 1.017c-.256.561-.458 1.237-.449 1.502.008.264.281-.131.606-.88.683-1.574.539-2.149-.157-.622m27.45 9.593c-.123.435-.346 1.15-.495 1.59s.022.294.38-.324.581-1.334.495-1.59c-.085-.256-.256-.11-.38.324m-2.224 6.29c-.681 1.884-.587 2.394.135.73.327-.753.54-1.531.475-1.728-.066-.197-.341.252-.61.998m-31.226.517c-.256.561-.458 1.237-.449 1.502.008.264.281-.131.606-.88.683-1.574.539-2.149-.157-.622m29.2 5.2c-.67 1.471-.542 1.785.182.448.339-.625.541-1.211.449-1.302-.091-.092-.375.293-.631.854m-34 8c-.67 1.471-.542 1.785.182.448.339-.625.541-1.211.449-1.302-.091-.092-.375.293-.631.854m30 3.2c-.256.561-.458 1.237-.449 1.502.008.264.281-.131.606-.88.683-1.574.539-2.149-.157-.622m126.351.037c-.009.25.247 1.06.568 1.8.322.74.592 1.142.6.892.009-.25-.247-1.06-.568-1.8-.322-.74-.592-1.142-.6-.892m-158.351 1.963c-.256.561-.458 1.237-.449 1.502.008.264.281-.131.606-.88.683-1.574.539-2.149-.157-.622m-2 5.6c-.67 1.471-.542 1.785.182.448.339-.625.541-1.211.449-1.302-.091-.092-.375.293-.631.854m7.435 3.682c4.015.066 10.585.066 14.6 0 4.015-.065.73-.118-7.3-.118s-11.315.053-7.3.118m165.6 0c4.235.065 11.165.065 15.4 0 4.235-.064.77-.117-7.7-.117s-11.935.053-7.7.117" fill="#a87fce"/><path d="m186.76 77.642c-.638.684-1.16 1.435-1.16 1.67 0 .236-.704 1.881-1.564 3.658-2.673 5.522-6.436 13.513-6.436 13.669 0 .082-.9 2.062-2 4.4s-2 4.32-2 4.404c0 .148-3.065 7.061-4.289 9.671-.339.723-.526 1.405-.416 1.515.223.222.572-.494 3.322-6.829 1.051-2.42 2.494-5.66 3.207-7.2.714-1.54 1.753-3.798 2.31-5.019 2.12-4.645 4.372-9.491 5.755-12.381.789-1.65 1.9-3.99 2.469-5.2 1.404-2.987.336-2.787 14.896-2.794l13.054-.006.646.986c.355.542.646 1.161.646 1.375s1.095 2.695 2.433 5.514c6.196 13.051 7.201 15.216 9.801 21.125 2.514 5.712 3.719 8.123 3.745 7.495.012-.278-.147-.818-.352-1.2-.597-1.115-2.66-5.662-3.944-8.695-1.135-2.68-2.78-6.241-6.099-13.2-.84-1.76-2.052-4.37-2.694-5.8-4.198-9.355-2.144-8.388-17.83-8.395l-12.339-.005zm12.12 34.438c-.264.264-.48.687-.48.94 0 .254-.417 1.253-.926 2.22-.509.968-1.224 2.517-1.59 3.443-.365.926-1.015 2.456-1.444 3.4-3.473 7.65-5.701 12.67-6.443 14.517-.176.44-1.078 2.69-2.003 5s-2.112 5.15-2.638 6.311-.956 2.34-.956 2.62-.15.68-.334.889-.65 1.28-1.037 2.38-1.136 2.95-1.666 4.111-.963 2.34-.963 2.62-.197.706-.438.947c-.24.24-.375.723-.3 1.072.076.349 1.558-2.917 3.293-7.258 1.736-4.341 3.466-8.612 3.845-9.492.38-.88 1.01-2.41 1.4-3.4s.935-2.34 1.213-3c.277-.66.908-2.19 1.401-3.4.494-1.21 1.323-3.145 1.842-4.3s1.41-3.135 1.979-4.4 1.274-2.84 1.567-3.5c.294-.66 1.073-2.391 1.732-3.847.659-1.455 1.609-3.615 2.111-4.8 1.162-2.739 1.546-2.99 2.655-1.73.529.601.9.796.9.475 0-1.358-1.906-2.632-2.72-1.818m32.347 2.545c-.015.234.309 1.134.72 2s1.061 2.295 1.444 3.175c.382.88.933 2.14 1.223 2.8s.834 1.92 1.209 2.8 1.019 2.309 1.43 3.175.747 1.722.747 1.902.45 1.26 1 2.4 1 2.214 1 2.387.469 1.354 1.041 2.625c.573 1.271 1.191 2.671 1.373 3.111.392.944 1.526 3.664 2.003 4.8.185.44.897 2.15 1.583 3.8s1.4 3.36 1.586 3.8c.187.44.622 1.557.967 2.483s.967 2.456 1.382 3.4c.416.944 1.075 2.527 1.465 3.517s.954 2.367 1.254 3.06c.3.694.546 1.371.546 1.505 0 .223.816 2.166 2.198 5.235.297.66.928 2.28 1.401 3.6.474 1.32 1.094 2.94 1.377 3.6.462 1.076 1.38 3.386 2.225 5.6 1.153 3.019 2.533 6.525 2.834 7.2.197.44.793 1.97 1.327 3.4 1.694 4.546 1.856 4.915 2.064 4.707.112-.112-.005-.722-.261-1.355-.255-.634-.601-1.512-.767-1.952-.654-1.731-1.711-4.44-2.028-5.2-.183-.44-1.519-3.86-2.967-7.6-2.625-6.78-2.914-7.508-3.725-9.4-.235-.55-1.089-2.71-1.898-4.8-.808-2.09-1.708-4.34-1.998-5-.291-.66-1.729-4.17-3.195-7.8s-2.917-7.167-3.226-7.86c-.309-.694-.561-1.368-.561-1.499s-.63-1.602-1.4-3.269-1.4-3.184-1.4-3.372-.596-1.66-1.323-3.271c-.728-1.611-1.653-3.739-2.054-4.729-.402-.99-1.156-2.75-1.677-3.911-.52-1.161-.946-2.191-.946-2.288 0-.098-.425-1.128-.944-2.289-.519-1.162-1.341-3.012-1.827-4.112-1.722-3.901-3.175-6.794-3.202-6.375m-29.614.451c-.007.262.167.588.387.724s.4.489.4.784c0 .296.734 2.13 1.631 4.077.897 1.946 1.777 3.899 1.955 4.339s.954 2.24 1.724 4c.771 1.76 2.606 6.17 4.078 9.8s2.825 6.96 3.006 7.4 1.087 2.69 2.013 5c.925 2.31 1.907 4.74 2.18 5.4.274.66 1.087 2.692 1.806 4.515.72 1.824 1.407 3.219 1.525 3.1.119-.119.024-.621-.212-1.116-.235-.494-.917-2.159-1.514-3.699s-1.235-3.16-1.419-3.6c-.183-.44-1.339-3.32-2.569-6.4s-2.39-5.96-2.579-6.4c-.188-.44-.74-1.79-1.225-3-.486-1.21-1.116-2.74-1.4-3.4-.285-.66-1.068-2.562-1.74-4.227s-1.571-3.735-1.997-4.6c-.425-.865-1.084-2.383-1.464-3.373s-1.301-3.06-2.046-4.6c-.746-1.54-1.356-2.991-1.355-3.224.003-.597-1.17-2.08-1.185-1.5m-34.403 5.027c-.731 1.593-1.548 3.437-1.815 4.097-.268.66-1.036 2.46-1.706 4-.671 1.54-1.617 3.79-2.103 5-.802 2-1.464 3.545-2.996 7-.293.66-1.735 4.17-3.205 7.8s-2.909 7.14-3.199 7.8c-1.393 3.174-1.89 4.38-2.812 6.832-.549 1.457-1.79 4.566-2.758 6.908-1.69 4.087-4.268 10.617-8.08 20.46-.98 2.53-1.934 4.96-2.12 5.4s-.806 2.015-1.377 3.5-1.472 3.825-2.001 5.2c-.528 1.375-2.52 6.64-4.425 11.7s-3.707 9.83-4.004 10.6-1.478 3.92-2.625 7c-1.148 3.08-2.333 6.167-2.635 6.86-.302.694-.549 1.461-.549 1.706s-.169.757-.375 1.139-.857 2.045-1.447 3.695-1.216 3.36-1.392 3.8c-.175.44-1.041 2.78-1.923 5.2-4.282 11.741-5.745 15.657-6.089 16.295-.206.382-.374.96-.374 1.286s-.295 1.273-.655 2.105c-.361.833-.789 1.874-.951 2.314s-.504 1.318-.759 1.952c-.256.633-.373 1.243-.261 1.355s.389-.316.615-.952c.226-.635.591-1.468.811-1.85s.4-1.046.4-1.476.166-.884.369-1.01c.203-.125.496-.805.651-1.51.155-.706.427-1.559.604-1.896.178-.337 1.071-2.683 1.986-5.213.914-2.53 1.826-4.913 2.026-5.295s.364-1.021.364-1.42.15-.896.334-1.105.648-1.28 1.031-2.38.844-2.36 1.024-2.8c.179-.44.632-1.7 1.006-2.8s.913-2.54 1.197-3.2.753-1.92 1.044-2.8c.29-.88.671-1.771.846-1.98s.319-.659.32-1c.002-.341.272-1.136.6-1.766.329-.63.598-1.449.598-1.82s.147-.845.328-1.054c.18-.209.822-1.73 1.425-3.38.604-1.65 1.357-3.591 1.673-4.314.316-.722.574-1.631.574-2.02 0-.388.155-.877.344-1.086.19-.209 1.109-2.45 2.043-4.98.935-2.53 1.842-4.96 2.017-5.4.51-1.284 2.43-6.258 3.088-8 .332-.88.749-1.96.926-2.4s.99-2.6 1.807-4.8 1.71-4.54 1.985-5.2c.446-1.072 2.182-5.486 2.989-7.6.808-2.118 1.729-4.479 2.029-5.2.182-.44 1.078-2.69 1.99-5 1.665-4.22 5.367-13.507 5.978-15 .18-.44 1.085-2.69 2.011-5s2.001-4.92 2.389-5.8c.596-1.352 2.444-5.886 3.587-8.8.172-.44.806-1.88 1.408-3.2 1.467-3.217 1.662-3.675 2.555-6 .422-1.1 1.322-3.208 1.999-4.685.678-1.477 1.347-3.144 1.488-3.704s.416-1.117.611-1.238c.196-.121.356-.482.356-.801 0-.32.652-1.937 1.449-3.594s1.369-3.094 1.27-3.193c-.099-.098-.778 1.124-1.509 2.718m9.597 44.784c-.275.722-.736 1.853-1.024 2.513-.287.66-.908 2.28-1.379 3.6s-1.136 3.12-1.478 4-.762 1.96-.933 2.4-.573 1.43-.892 2.2c-1.288 3.105-1.575 3.978-1.439 4.385.077.233 1.107-2.142 2.288-5.28s2.369-6.245 2.64-6.905.897-2.28 1.39-3.6c.494-1.32 1.091-2.805 1.326-3.299.236-.495.332-.996.215-1.113-.117-.118-.439.377-.714 1.099m45.619.119c-.027.414.233 1.138 3.159 8.794.925 2.42 1.92 5.03 2.212 5.8 2.02 5.336 2.396 6.146 2.532 5.458.08-.409-.051-.94-.291-1.18-.241-.241-.438-.673-.438-.96s-.45-1.455-1-2.595-1-2.303-1-2.584c0-.282-.295-1.193-.655-2.025-.361-.833-.79-1.874-.954-2.314-2.115-5.682-3.527-9.006-3.565-8.394m-53.615 20.765c-.226.594-.411 1.252-.411 1.46 0 .374-.22.889-1.138 2.664-.254.492-.462 1.094-.462 1.339s-.252 1.012-.56 1.706c-.308.693-.654 1.62-.767 2.06-.114.44-.687 2.06-1.274 3.6-.586 1.54-1.436 3.88-1.888 5.2-.451 1.32-1.007 2.805-1.233 3.299-.227.495-.316.996-.199 1.113.117.118.404-.287.637-.899 1.653-4.348 2.939-7.882 3.679-10.113.474-1.43 1.011-2.96 1.193-3.4s.556-1.43.832-2.2c.275-.77.713-1.94.974-2.6.905-2.291 1.391-3.948 1.21-4.129-.1-.1-.367.305-.593.9m61.615.705c-.014.372.154.788.374.924s.4.651.4 1.144.158 1.067.351 1.276.72 1.46 1.172 2.78c.782 2.281 1.282 3.655 4.597 12.629.778 2.107 1.282 4.043 1.121 4.305-.54.873-76.898.676-77.539-.2-.607-.83-.663-.383-.088.692.481.899 75.951 1.249 77.612.36.815-.436 1.064-2.16.374-2.586-.22-.136-.4-.651-.4-1.144s-.158-1.067-.352-1.276c-.193-.209-.574-1.1-.847-1.98-.272-.88-.721-2.14-.997-2.8s-1.435-3.72-2.576-6.8c-2.456-6.629-3.167-8.256-3.202-7.324m36.4 15.344c-.014.451.132.991.325 1.2s.747 1.55 1.233 2.98c.806 2.375 1.658 4.578 3.018 7.8.279.66 1.003 2.64 1.61 4.4.606 1.76 1.424 3.883 1.817 4.717.393.835.831 2.048.974 2.696.142.648.425 1.281.628 1.406.203.126.369.632.369 1.125s.143 1.067.318 1.276.556 1.1.846 1.98c.501 1.519.981 2.727 2.269 5.714.312.722.567 1.631.567 2.02 0 .388.147.877.328 1.086.18.209.825 1.73 1.434 3.38 1.857 5.037 1.94 5.232 2.131 5.04.163-.163-.349-1.68-2.512-7.44-.289-.77-1.055-2.84-1.702-4.6-2.536-6.897-3.709-10.033-4.039-10.8-.517-1.202-1.421-3.561-3.065-8-4.978-13.439-6.512-17.182-6.549-15.98m-115.323 33.08c-.324.495-1.147 2.541-1.83 4.546-.682 2.005-1.415 4.075-1.628 4.6-.214.525-.865 2.304-1.449 3.954-.583 1.65-1.199 3.36-1.368 3.8-.609 1.58-1.3 3.615-1.496 4.4-.109.44-.349 1.16-.533 1.6-.898 2.146-2.399 6.473-2.399 6.914 0 .273-.177.809-.394 1.191-.216.382-.737 1.685-1.157 2.895s-1.17 3.37-1.667 4.8c-.498 1.43-1.147 3.167-1.443 3.86-.297.694-.539 1.461-.539 1.706s-.169.757-.375 1.139c-.571 1.058-2.425 6.248-2.425 6.789 0 1.156-1.803 1.306-15.731 1.306-15.243 0-15.165.011-14.04-2.02.298-.539.549-1.374.557-1.856s.194-.988.414-1.124.391-.642.379-1.124c-.014-.61-.205-.391-.629.724-.335.88-.872 2.204-1.193 2.942-1.293 2.972-1.875 2.859 14.57 2.852 16.666-.007 15.264.278 16.664-3.394.588-1.54 1.325-3.391 1.639-4.114.313-.722.57-1.571.57-1.886s.259-1.164.575-1.886c.316-.723 1.051-2.664 1.632-4.314s1.208-3.36 1.392-3.8.427-1.16.539-1.6c.184-.717 1.197-3.588 4.372-12.4.555-1.54 1.851-5.23 2.879-8.2s2.025-5.76 2.216-6.2c.19-.44.741-1.922 1.222-3.294.482-1.371 1.099-2.678 1.371-2.904.89-.739 95.34-.346 95.811.398.208.33.382.411.385.18.02-1.374-.193-1.38-48.628-1.38h-47.674zm97.076 1.7c.163.44.625 1.79 1.027 3 1.009 3.033 4.621 13.178 5.128 14.4.393.947.417.953.441.124.014-.482-.155-.988-.375-1.124s-.4-.59-.4-1.01-.295-1.444-.655-2.276c-.675-1.557-.882-2.108-1.703-4.514-.262-.77-1.029-3.02-1.704-5s-1.413-3.78-1.641-4c-.284-.274-.321-.148-.118.4m36.221 13.31c0 .463.18.954.4 1.09s.4.502.4.813.423 1.515.94 2.676 1.252 3.101 1.634 4.311.838 2.56 1.013 3c.383.958 2.126 5.473 2.823 7.313.274.722.594 1.217.711 1.099.117-.117.025-.618-.206-1.113-.231-.494-.906-2.249-1.5-3.899s-1.241-3.36-1.437-3.8-.788-2.06-1.315-3.6c-2.448-7.154-3.463-9.465-3.463-7.89m-29.584 5.49c-.007.22.72 2.47 1.614 5 .895 2.53 1.811 5.23 2.036 6s.572 1.571.771 1.78c.2.209.363.658.363.999 0 .34.915 3.049 2.032 6.02 3.384 8.993 3.968 10.604 3.968 10.948 0 .181.372.852.827 1.491l.827 1.162h15.53c14.341 0 15.551-.053 15.795-.691.234-.609-1.173-4.97-2.829-8.769-.303-.694-.55-1.396-.55-1.56 0-.884-2.619-7.025-2.736-6.416-.077.396.058.918.298 1.158.241.241.438.841.438 1.334s.158.995.352 1.114c.194.12.651 1.166 1.015 2.324.365 1.158.822 2.466 1.015 2.906.759 1.727 2.418 6.891 2.418 7.527 0 .714-29.643 1.07-30.601.367-.441-.324-.948-1.367-1.992-4.094-.379-.99-.851-2.113-1.048-2.495s-.359-.96-.359-1.286-.295-1.273-.655-2.105c-1.263-2.915-3.187-8.207-3.571-9.818-.144-.607-.423-1.202-.618-1.323-.196-.121-.356-.521-.356-.888 0-.687-1.756-5.741-2.425-6.98-.206-.382-.381-1.012-.389-1.4-.015-.749-1.149-2.984-1.17-2.305" fill="#c4a8dc"/><path d="m186.608 76.649c-.695.695-3.533 6.56-3.291 6.801.077.077.661-.982 1.298-2.355.637-1.372 1.491-2.99 1.899-3.595l.74-1.1h13.526 13.525l1.113 2.201c.613 1.21 1.196 2.118 1.297 2.018.1-.101-.356-1.136-1.014-2.301l-1.196-2.118-13.619-.105c-12.209-.095-13.687-.037-14.278.554m31.006 6.375c.025.67 1.158 2.406 1.159 1.776.001-.33-.263-.949-.586-1.376-.323-.428-.581-.608-.573-.4m2.8 6c.025.67 1.158 2.406 1.159 1.776.001-.33-.263-.949-.586-1.376-.323-.428-.581-.608-.573-.4m-41.183 2.607c-1.071 2.217-.837 2.451.307.307.485-.908.8-1.733.7-1.833s-.553.586-1.007 1.526m42.382.023c-.007.14.256.77.585 1.4.328.63.598.865.6.522.002-.586-1.158-2.468-1.185-1.922m-44.543 4.556c-.149.435-.379 1.06-.512 1.39-.132.33.061.19.43-.31.37-.501.6-1.126.512-1.39-.09-.269-.278-.133-.43.31m47.411 1.581c.478.985.938 1.723 1.022 1.639.181-.181-1.435-3.43-1.706-3.43-.103 0 .205.806.684 1.791m-49.258 2.46c-.471.798-.8 1.619-.731 1.824.068.206.523-.447 1.011-1.45 1.063-2.187.91-2.391-.28-.374m50.39-.146c-.007.168.148.618.344 1s.563 1.213.815 1.847c.252.633.574 1.035.716.893s.046-.471-.215-.732c-.26-.26-.473-.763-.473-1.117 0-.633-1.163-2.485-1.187-1.891m-52.709 5.379c-.273.582-.422 1.131-.332 1.221.24.241 1.101-1.487.954-1.914-.069-.201-.349.111-.622.693m55.56 1.355c.436.901.864 1.567.951 1.479.229-.228-1.126-3.118-1.462-3.118-.154 0 .076.737.511 1.639m1.149 2.466c-.007.168.146.618.34 1 .195.382.585 1.19.868 1.794.282.605.606 1.007.72.894.113-.114-.007-.419-.268-.68-.26-.26-.473-.763-.473-1.117 0-.633-1.163-2.485-1.187-1.891m-30.813 4.282c0 .214.279.281.619.15.358-.137.86.08 1.187.513.313.412.574.561.581.33.02-.647-.866-1.38-1.667-1.38-.396 0-.72.174-.72.387m-29.73.623c-.149.435-.379 1.06-.512 1.39-.132.33.061.19.43-.31.37-.501.6-1.126.512-1.39-.09-.269-.278-.133-.43.31m62.53-.085c0 .386 1.961 4.003 1.979 3.65.025-.514-1.519-3.775-1.788-3.775-.105 0-.191.056-.191.125m-33.628 1.723c-.252.634-.648 1.512-.879 1.952-.377.716-.351.742.243.251.365-.302.664-.851.664-1.22s.213-.884.473-1.144c.261-.261.357-.59.215-.732s-.464.26-.716.893m3.242-.394c-.008.25.255.97.584 1.6.328.63.592.876.585.546-.014-.717-1.148-2.8-1.169-2.146m-34.417 3.817c-.658 1.359-1.188 2.664-1.176 2.9.02.397 1.111-1.654 2.273-4.271.957-2.154.079-1.057-1.097 1.371m67.682 1.138c.46 1.106.923 1.923 1.03 1.816.206-.207-1.391-3.825-1.689-3.825-.097 0 .2.904.659 2.009m-31.274-.293c-.008.534 1.639 3.573 1.832 3.38.1-.1-.27-.972-.823-1.939-.552-.966-1.007-1.615-1.009-1.441m-7.94 1.701c-.67 1.471-.542 1.785.182.448.339-.625.541-1.211.449-1.302-.091-.092-.375.293-.631.854m-30.366 1.774c-.727 1.164-.612 1.948.131.888.346-.495.571-1.077.499-1.293-.073-.217-.356-.035-.63.405m40.314 1.263c-.007.14.256.77.585 1.4.328.63.598.865.6.522.002-.586-1.158-2.468-1.185-1.922m-11.909 1.43c-.273.582-.422 1.131-.332 1.221.24.241 1.101-1.487.954-1.914-.069-.201-.349.111-.622.693m-30.419 2.129c-.267.427-.478 1.004-.469 1.282s.293-.006.631-.63c.703-1.297.571-1.827-.162-.652m44.336 1.012c-.029.582 1.594 3.894 1.804 3.683.094-.093-.27-1.056-.807-2.139s-.985-1.778-.997-1.544m31.192.229c-.007.14.256.77.585 1.4.328.63.598.865.6.522.002-.586-1.158-2.468-1.185-1.922m-47.414 1.832c-.388.833-.782 1.649-.876 1.814-.093.165-.074.3.044.3.28 0 1.872-3.295 1.683-3.484-.08-.079-.463.537-.851 1.37m-30.119 1.794c-.264.264-.459.849-.434 1.3.046.803.051.804.243.02.109-.44.38-1.025.603-1.3.518-.638.22-.652-.412-.02m79.553.945c-.018.234.408 1.314.946 2.4s.977 1.795.975 1.575c-.005-.59-1.882-4.474-1.921-3.975m-51.148 1.148c-.67 1.471-.607 1.779.145.706.346-.495.565-1.095.485-1.335-.08-.239-.363.044-.63.629m20.717.651c-.001.342.262.972.585 1.4.764 1.01.772.572.015-.878-.328-.63-.598-.865-.6-.522m-51.574 2.812c-.455.943-.819 1.905-.807 2.139s.46-.461.997-1.544.901-2.046.807-2.139c-.093-.093-.542.602-.997 1.544m83.986.188c.025.67 1.158 2.406 1.159 1.776.001-.33-.263-.949-.586-1.376-.323-.428-.581-.608-.573-.4m-55.214 1.376c-.279.674-.418 1.316-.308 1.426s.429-.352.708-1.026.418-1.316.308-1.426-.429.352-.708 1.026m24.83.4c-.002.576 1.127 2.866 1.156 2.346.008-.14-.249-.86-.57-1.6-.322-.74-.585-1.076-.586-.746m-55.198 1.939c-.237.445-.431 1.045-.43 1.335.002.289.275.004.608-.634.332-.637.526-1.238.43-1.334-.097-.096-.37.189-.608.633m87.582 1.085c.025.67 1.158 2.406 1.159 1.776.001-.33-.263-.949-.586-1.376-.323-.428-.581-.608-.573-.4m-59.114 1.476c-.43 1.175-.42 1.226.112.524.509-.672.809-1.824.476-1.824-.062 0-.327.585-.588 1.3m28.759.5c-.018.44.231 1.149.554 1.576.323.428.587.599.587.38 0-.218-.163-.567-.361-.776-.199-.209-.448-.74-.554-1.18l-.192-.8zm-59.632 2.627c-.503 1.111-.83 2.104-.727 2.206.102.102.573-.747 1.047-1.886 1.118-2.693.866-2.945-.32-.32m28.459 2.659c-.474 1.029-.782 1.952-.684 2.05.098.097.547-.684.998-1.736 1.067-2.489.806-2.75-.314-.314m33.144-.286c-.002.576 1.127 2.866 1.156 2.346.008-.14-.249-.86-.57-1.6-.322-.74-.585-1.076-.586-.746m-63.926 3.484c-.273.582-.422 1.131-.332 1.221.24.241 1.101-1.487.954-1.914-.069-.201-.349.111-.622.693m96.296-.559c0 .283 1.96 4.054 1.979 3.808.035-.439-1.533-3.933-1.765-3.933-.118 0-.214.056-.214.125m-67.115 1.248c-.699 1.535-.593 2.244.128.86.335-.642.552-1.337.483-1.545s-.344.1-.611.685m36.743.827c0 .22.258.85.572 1.4s.572.82.572.6-.258-.85-.572-1.4-.572-.82-.572-.6m-67.595 2.418c-1.186 2.681-1.033 3.14.213.64.575-1.155.95-2.195.833-2.312-.116-.117-.587.635-1.046 1.672m100.18.513c.15.293.418 1.013.596 1.6.258.858.329.906.357.245.019-.452-.249-1.172-.596-1.6-.346-.427-.507-.537-.357-.245m-71.676 2.273c-.475 1.208-.784 2.196-.686 2.196.278 0 1.787-3.686 1.662-4.059-.062-.183-.501.655-.976 1.863m41.093-.204c-.002.576 1.127 2.866 1.156 2.346.008-.14-.249-.86-.57-1.6-.322-.74-.585-1.076-.586-.746m-71.457 2.204c-.145.773-.423 1.503-.618 1.624s-.35.434-.343.696c.016.628.853-.787 1.433-2.424.253-.715.31-1.3.126-1.3s-.453.632-.598 1.404m103.841.42c.025.67 1.158 2.406 1.159 1.776.001-.33-.263-.949-.586-1.376-.323-.428-.581-.608-.573-.4m-75.149 1.993c-.256.561-.458 1.237-.449 1.502.008.264.281-.131.606-.88.683-1.574.539-2.149-.157-.622m44.737.437c-.001.25.267.97.596 1.6.328.63.598.942.6.692.001-.25-.267-.97-.596-1.6-.328-.63-.598-.942-.6-.692m-75.604 2.352c-.453 1.055-.742 2.116-.642 2.356.109.265.193.233.212-.081.018-.286.391-1.262.829-2.17.439-.907.713-1.734.61-1.837s-.557.676-1.009 1.732m108.557 1.494c.58 1.637 1.417 3.052 1.433 2.424.007-.262-.148-.575-.343-.696s-.473-.851-.618-1.624c-.145-.772-.414-1.404-.598-1.404s-.127.585.126 1.3m-30.955 1.849c0 .55 1.524 3.651 1.794 3.651.184 0-1.308-3.648-1.619-3.958-.096-.097-.175.042-.175.307m-49.496 1.135c-.273.582-.422 1.131-.332 1.221.24.241 1.101-1.487.954-1.914-.069-.201-.349.111-.622.693m-30.234 1.126c-.149.435-.379 1.06-.512 1.39-.132.33.061.19.43-.31.37-.501.6-1.126.512-1.39-.09-.269-.278-.133-.43.31m112.947 1.39c.014.717 1.148 2.8 1.169 2.146.008-.25-.255-.97-.584-1.6-.328-.63-.592-.876-.585-.546m-84.71 2.832c-.271.724-.421 1.388-.332 1.476.285.285 1.08-1.53.95-2.17-.074-.366-.327-.081-.618.694m-30.422.941c-.699 1.535-.593 2.244.128.86.335-.642.552-1.337.483-1.545s-.344.1-.611.685m84.749-.349c-.019.452.249 1.172.596 1.6.346.427.507.537.357.245-.15-.293-.418-1.013-.596-1.6-.258-.858-.329-.906-.357-.245m32.148 1.076c.964 2.571 1.366 3.329 1.393 2.624.014-.372-.135-.775-.33-.896s-.473-.851-.618-1.624c-.145-.772-.414-1.404-.598-1.404s-.115.585.153 1.3m-88.082 2.6c-.487 1.237-.822 2.311-.745 2.389.077.077.547-.863 1.045-2.089s.833-2.301.745-2.389c-.088-.087-.558.852-1.045 2.089m57.145-.5c-.009.44.241 1.25.555 1.8.713 1.247.713.651 0-1.2-.353-.917-.545-1.124-.555-.6m-87.945 2.493c-.712 1.518-.616 2.14.113.74.335-.642.559-1.311.498-1.487s-.336.16-.611.747m120.3-.36c0 .184.135.469.3.634.165.164.605 1.049.978 1.966.372.917.687 1.386.7 1.042.012-.344-.342-1.379-.787-2.3-.772-1.596-1.191-2.069-1.191-1.342m-30.384 3.343c-.009.372.164.788.384.924s.421.642.446 1.124c.034.64.095.694.225.199.098-.372-.095-1.182-.43-1.8-.407-.751-.614-.899-.625-.447m-61.488 1.424c-.414 1.328-.403 1.411.102.724.478-.651.809-2.224.468-2.224-.056 0-.313.675-.57 1.5m-30.463.717c-.256.561-.458 1.237-.449 1.502.008.264.281-.131.606-.88.683-1.574.539-2.149-.157-.622m125.149 1.207c.025.67 1.158 2.406 1.159 1.776.001-.33-.263-.949-.586-1.376-.323-.428-.581-.608-.573-.4m-95.929 1.549c-.699 1.535-.593 2.244.128.86.335-.642.552-1.337.483-1.545s-.344.1-.611.685m64.729.481c-.008.25.255.97.584 1.6.328.63.592.876.585.546-.014-.717-1.148-2.8-1.169-2.146m-96.003 1.933c-.268.322-.418.793-.334 1.045s.368-.012.63-.587c.533-1.171.43-1.333-.296-.458m129.219 1.013c-.002.576 1.127 2.866 1.156 2.346.008-.14-.249-.86-.57-1.6-.322-.74-.585-1.076-.586-.746m-131.265 4.248c-.255.634-.652 1.557-.882 2.051-.23.495-.321.996-.204 1.113.117.118.433-.377.701-1.099.267-.722.664-1.646.881-2.052s.299-.835.182-.952-.422.306-.678.939m30.75-.438c-.123.435-.346 1.15-.495 1.59s.022.294.38-.324.581-1.334.495-1.59c-.085-.256-.256-.11-.38.324m70.113.79c-.001.44.262 1.149.585 1.576.743.983.744.677.003-1.03-.405-.932-.586-1.1-.588-.546m32.372.678c0 .127.269.746.598 1.376.328.63.592.876.587.546-.006-.33-.275-.949-.598-1.376-.323-.428-.587-.673-.587-.546m-104.7 4.392c-.684 1.896-.624 2.378.117.955.337-.646.561-1.437.498-1.758s-.34.04-.615.803m-30.42-.39c-.264.264-.459.849-.434 1.3.046.803.051.804.243.02.109-.44.38-1.025.603-1.3.518-.638.22-.652-.412-.02m104.722.574c-.001.25.267.97.596 1.6.328.63.598.942.6.692.001-.25-.267-.97-.596-1.6-.328-.63-.598-.942-.6-.692m32.444.571c-.025.344.395 1.514.933 2.6s.988 1.755 1 1.487-.321-1.096-.738-1.839-.846-1.694-.954-2.112c-.135-.528-.208-.57-.241-.136m-31.246 2.708c0 .353-9.41.467-38.4.467-25.333 0-38.4.136-38.4.4 0 .739 76.193.531 76.808-.21.278-.335.39-.725.249-.866-.141-.142-.257-.047-.257.209m-107.989 1.438c-.63 1.658-.457 2.208.211.668.325-.748.503-1.448.395-1.555-.107-.107-.38.292-.606.887m141.189 1.107c0 .126.263.836.584 1.576.405.932.586 1.1.588.546.001-.44-.262-1.149-.585-1.576-.323-.428-.587-.673-.587-.546m-143.135 4.139c-.256.561-.458 1.237-.449 1.502.008.264.281-.131.606-.88.683-1.574.539-2.149-.157-.622m145.135 1.703c0 .176.158.491.352.7.193.209.583 1.1.865 1.98.283.88.58 1.403.661 1.162.16-.475-1.314-4.162-1.664-4.162-.118 0-.214.144-.214.32m-147.935 5.497c-.256.561-.458 1.237-.449 1.502.008.264.281-.131.606-.88.683-1.574.539-2.149-.157-.622m150.148-.286c.15.293.418 1.013.596 1.6.258.858.329.906.357.245.019-.452-.249-1.172-.596-1.6-.346-.427-.507-.537-.357-.245m1.801 5.093c.025.67 1.158 2.406 1.159 1.776.001-.33-.263-.949-.586-1.376-.323-.428-.581-.608-.573-.4m-155.064 3.619c-.147.416-.512 1.364-.809 2.106-.298.742-.533 1.552-.524 1.8s.459-.614 1-1.916c.54-1.302.897-2.453.792-2.557-.105-.105-.311.15-.459.567m157.063 1.577c-.007.231.15.591.348.8.199.209.448.74.554 1.18.188.78.193.78.239-.024.025-.452-.218-1.172-.541-1.6-.323-.427-.593-.587-.6-.356m-127.102 2.68c-.493.637-.949 1.9-.686 1.9.111 0 .336-.364.5-.81.291-.786 94.464-1.338 95.721-.562.195.121.354.048.354-.162 0-.209-.285-.49-.633-.623-1.361-.523-94.848-.27-95.256.257m-32.338 2.104c-.145.773-.423 1.503-.618 1.624s-.355.509-.355.862c0 .976.354.425 1.181-1.839.413-1.128.594-2.051.403-2.051s-.466.632-.611 1.404m128.227-.094c0 .353.18.754.4.89s.406.642.414 1.124c.014.868 1.145 3.251 1.172 2.47.017-.491-1.466-4.608-1.77-4.911-.119-.119-.216.073-.216.427m-97.509 1.99c-.681 1.884-.587 2.394.135.73.327-.753.54-1.531.475-1.728-.066-.197-.341.252-.61.998m131.526.7c.014.717 1.148 2.8 1.169 2.146.008-.25-.255-.97-.584-1.6-.328-.63-.592-.876-.585-.546m-164.817 4c-.279.674-.418 1.316-.308 1.426s.429-.352.708-1.026.418-1.316.308-1.426-.429.352-.708 1.026m133.62.8c-.004.11.251.92.568 1.8s.578 1.24.58.8c.003-.665-1.123-3.215-1.148-2.6m-103.061 2.197c-.242.772-.29 1.403-.107 1.403.386 0 .893-1.765.686-2.386-.077-.231-.338.211-.579.983m-32.474 2.616c-.267.427-.478 1.004-.469 1.282s.293-.006.631-.63c.703-1.297.571-1.827-.162-.652m169.915-.48c0 .184.135.466.3.629.165.162.601 1.137.969 2.166.368 1.03.683 1.572.7 1.205.035-.743-1.419-4.333-1.755-4.333-.118 0-.214.15-.214.333m-32.4 1.551c0 .23.243 1.025.541 1.767.297.742.662 1.69.809 2.106.148.417.35.676.45.576.1-.099-.191-1.16-.645-2.357-.859-2.264-1.155-2.8-1.155-2.092m-107.096 2c-.273.582-.422 1.131-.332 1.221.24.241 1.101-1.487.954-1.914-.069-.201-.349.111-.622.693m-32.472 2.055c-.237.445-.425 1.135-.416 1.535.009.434.252.18.606-.635.648-1.494.501-2.191-.19-.9m141.577 1.737c-.005.372.171.788.391.924s.4.585.4.998c0 .925.755 2.98 1.004 2.731.197-.197-.416-2.207-1.259-4.129-.297-.677-.531-.905-.536-.524m-110.87 1.124c-.13.55-.371 1.36-.537 1.8-.257.684-.202.669.376-.106.372-.499.613-1.309.537-1.8-.134-.864-.147-.861-.376.106m-32.654 2.813c-.267.427-.478 1.004-.469 1.282s.293-.006.631-.63c.703-1.297.571-1.827-.162-.652m178.715 1.265c0 .126.263.836.584 1.576.405.932.586 1.1.588.546.001-.44-.262-1.149-.585-1.576-.323-.428-.587-.673-.587-.546m-33.183.722c.014.717 1.148 2.8 1.169 2.146.008-.25-.255-.97-.584-1.6-.328-.63-.592-.876-.585-.546m-115.113 1.484c-.273.582-.422 1.131-.332 1.221.24.241 1.101-1.487.954-1.914-.069-.201-.349.111-.622.693m-32.405 1.707c-.275.439-.498 1.116-.497 1.504.002.473.203.322.611-.462.712-1.364.618-2.215-.114-1.042m182.703 1.463c-.001.25.267.97.596 1.6.328.63.598.942.6.692.001-.25-.267-.97-.596-1.6-.328-.63-.598-.942-.6-.692m-33.186 1.022c-.009.372.164.788.384.924s.421.642.446 1.124c.034.64.095.694.225.199.098-.372-.095-1.182-.43-1.8-.407-.751-.614-.899-.625-.447m34.384 2.389c0 .417 1.967 4.915 1.983 4.535.022-.531-1.335-4.085-1.698-4.448-.157-.157-.285-.196-.285-.087m-185.993 1.122c-.252.47-.377 1.16-.279 1.534.141.533.189.503.226-.141.025-.451.259-1.033.519-1.293.261-.261.365-.582.233-.715-.133-.132-.447.144-.699.615m153.61 2.118c-.009.388.142 1.018.336 1.4.195.382.585 1.19.868 1.794.945 2.022.791.865-.204-1.532-.541-1.302-.991-2.05-1-1.662m-123.126 1.595c-.681 1.884-.587 2.394.135.73.327-.753.54-1.531.475-1.728-.066-.197-.341.252-.61.998m-32.478 1.587c-.271.722-.686 1.718-.921 2.212-.234.495-.33.996-.213 1.113.117.118.436-.377.708-1.099.271-.722.686-1.718.921-2.212.234-.495.33-.996.213-1.113-.117-.118-.436.377-.708 1.099m190.789.967c-.004.741 1.165 3.205 1.182 2.492.009-.36-.253-1.17-.582-1.8-.328-.63-.598-.942-.6-.692m-159.956 2.366c-.025.451-.259 1.033-.519 1.293-.261.261-.365.582-.233.715.376.375 1.178-1.389.978-2.149-.141-.533-.189-.503-.226.141m127.586 1.004c-.018.342.248.972.59 1.4.612.764.616.763.254-.024-.202-.44-.468-1.07-.59-1.4-.193-.518-.227-.515-.254.024m-160.443 1.197c-.242.451-.383 1.093-.314 1.425.069.333.323-.037.565-.821.495-1.602.402-1.825-.251-.604m194.813 1.033c-.001.25.267.97.596 1.6.328.63.598.942.6.692.001-.25-.267-.97-.596-1.6-.328-.63-.598-.942-.6-.692m-33.18 1.009c-.033 1.003 2.019 4.737 2.605 4.737.326 0 .21-.339-.318-.932-.457-.513-1.153-1.728-1.547-2.7-.395-.973-.727-1.47-.74-1.105m-130.907 1.347c-.123.435-.346 1.15-.495 1.59s.022.294.38-.324.581-1.334.495-1.59c-.085-.256-.256-.11-.38.324m165.385 1.643c0 .571-.247 1.195-.55 1.386-.303.192-.361.352-.13.355 1.059.015 1.884-2.036 1.03-2.563-.193-.119-.35.251-.35.822m-197.754-.453c-.363.575.334 2.201.941 2.194.369-.005.384-.089.053-.3-.252-.162-.523-.744-.6-1.294-.078-.55-.255-.82-.394-.6" fill="#9866c4"/></g></svg>